# xmcd
#
# Track frame offsets:
#	150
#	16969
#	29532
#	41289
#	56627
#	66302
#	82559
#	93884
#	103016
#	118523
#	131536
#	148280
#	165793
#	174550
#
# Disc length: 2506 seconds
#
# Revision: 0
# Processed by: cddbd v1.4PL0 Copyright (c) Steve Scherf et al.
# Submitted via: dBpowerAMP V4.0
#
DISCID=ac09c80e
DTITLE=Darts - Dart Attack
DYEAR=1979
DGENRE=Blues
TTITLE0=Duke Of Earl
TTITLE1=Runaround
TTITLE2=Don't Say Yes
TTITLE3=Cuckoo
TTITLE4=One Off The Wrists
TTITLE5=Cool Jerk
TTITLE6=Don't Hang Up
TTITLE7=Honey Bee
TTITLE8=Can't Get Enough Of Your Love
TTITLE9=Reet Petite
TTITLE10=Don't Mess Around With Love
TTITLE11=Don't Look Back
TTITLE12=This Is The Night
TTITLE13=Goodbye Brenda
EXTD=
EXTT0=
EXTT1=
EXTT2=
EXTT3=
EXTT4=
EXTT5=
EXTT6=
EXTT7=
EXTT8=
EXTT9=
EXTT10=
EXTT11=
EXTT12=
EXTT13=
PLAYORDER=
